<svg xmlns="http://www.w3.org/2000/svg" width="350" height="215"
  viewBox="0 0 350 215" role="img" aria-labelledby="card-title">
  <title id="card-title">Top Languages</title>
  <style>
    .title { fill: #ffffff; font: 600 18px -apple-system, BlinkMacSystemFont, "Segoe UI", sans-serif; }
    .label { fill: #c9d1d9; font: 400 13px -apple-system, BlinkMacSystemFont, "Segoe UI", sans-serif; }
    .value { fill: #ffffff; font: 600 14px -apple-system, BlinkMacSystemFont, "Segoe UI", sans-serif; }
    .muted { fill: #8b949e; font: 400 11px -apple-system, BlinkMacSystemFont, "Segoe UI", sans-serif; }
  </style>
  <rect x="0.5" y="0.5" width="349" height="214" rx="6"
    fill="#151515" stroke="#e4e2e2"/>
  <text x="25" y="36" class="title">Top Languages</text>
  <text x="25" y="63" class="label">Python</text>
  <text x="325" y="63" text-anchor="end" class="value">38.8%</text>
  <rect x="25" y="70" width="300" height="5" rx="2.5" fill="#30363d"/>
  <rect x="25" y="70" width="116.5" height="5" rx="2.5" fill="#3572a5"/>
  <text x="25" y="86" class="label">JavaScript</text>
  <text x="325" y="86" text-anchor="end" class="value">33.1%</text>
  <rect x="25" y="93" width="300" height="5" rx="2.5" fill="#30363d"/>
  <rect x="25" y="93" width="99.4" height="5" rx="2.5" fill="#f1e05a"/>
  <text x="25" y="109" class="label">Shell</text>
  <text x="325" y="109" text-anchor="end" class="value">18.4%</text>
  <rect x="25" y="116" width="300" height="5" rx="2.5" fill="#30363d"/>
  <rect x="25" y="116" width="55.1" height="5" rx="2.5" fill="#89e051"/>
  <text x="25" y="132" class="label">HTML</text>
  <text x="325" y="132" text-anchor="end" class="value">5.7%</text>
  <rect x="25" y="139" width="300" height="5" rx="2.5" fill="#30363d"/>
  <rect x="25" y="139" width="17.0" height="5" rx="2.5" fill="#e34c26"/>
  <text x="25" y="155" class="label">CSS</text>
  <text x="325" y="155" text-anchor="end" class="value">2.8%</text>
  <rect x="25" y="162" width="300" height="5" rx="2.5" fill="#30363d"/>
  <rect x="25" y="162" width="8.4" height="5" rx="2.5" fill="#563d7c"/>
  <text x="25" y="178" class="label">Makefile</text>
  <text x="325" y="178" text-anchor="end" class="value">1.0%</text>
  <rect x="25" y="185" width="300" height="5" rx="2.5" fill="#30363d"/>
  <rect x="25" y="185" width="3.0" height="5" rx="2.5" fill="#427819"/>
  <text x="25" y="198" class="muted">Public, non-fork repositories • Updated 2026-07-21 UTC</text>
</svg>
