<svg xmlns="http://www.w3.org/2000/svg" width="495" height="340"
  viewBox="0 0 495 340" role="img" aria-labelledby="card-title">
  <title id="card-title">Public Project Code Composition</title>
  <style>
    .title { fill: #ffffff; font: 600 20px -apple-system, BlinkMacSystemFont, "Segoe UI", sans-serif; }
    .label { fill: #c9d1d9; font: 400 14px -apple-system, BlinkMacSystemFont, "Segoe UI", sans-serif; }
    .value { fill: #ffffff; font: 600 16px -apple-system, BlinkMacSystemFont, "Segoe UI", sans-serif; }
    .muted { fill: #8b949e; font: 400 12px -apple-system, BlinkMacSystemFont, "Segoe UI", sans-serif; }
  </style>
  <rect x="0.5" y="0.5" width="494" height="339" rx="6"
    fill="#151515" stroke="#e4e2e2"/>
  <text x="25" y="34" class="title">Public Project Code Composition</text>
  <text x="25" y="56" class="muted">Share of source-code bytes reported by GitHub Linguist</text>
  <text x="25" y="82" class="label">Python</text>
  <text x="470" y="82" text-anchor="end" class="value">41.3%</text>
  <rect x="25" y="90" width="445" height="5" rx="2.5" fill="#30363d"/>
  <rect x="25" y="90" width="183.7" height="5" rx="2.5" fill="#3572a5"/>
  <text x="25" y="116" class="label">JavaScript</text>
  <text x="470" y="116" text-anchor="end" class="value">35.2%</text>
  <rect x="25" y="124" width="445" height="5" rx="2.5" fill="#30363d"/>
  <rect x="25" y="124" width="156.8" height="5" rx="2.5" fill="#f1e05a"/>
  <text x="25" y="150" class="label">Shell</text>
  <text x="470" y="150" text-anchor="end" class="value">13.2%</text>
  <rect x="25" y="158" width="445" height="5" rx="2.5" fill="#30363d"/>
  <rect x="25" y="158" width="58.9" height="5" rx="2.5" fill="#89e051"/>
  <text x="25" y="184" class="label">HTML</text>
  <text x="470" y="184" text-anchor="end" class="value">6.0%</text>
  <rect x="25" y="192" width="445" height="5" rx="2.5" fill="#30363d"/>
  <rect x="25" y="192" width="26.7" height="5" rx="2.5" fill="#e34c26"/>
  <text x="25" y="218" class="label">CSS</text>
  <text x="470" y="218" text-anchor="end" class="value">3.0%</text>
  <rect x="25" y="226" width="445" height="5" rx="2.5" fill="#30363d"/>
  <rect x="25" y="226" width="13.2" height="5" rx="2.5" fill="#563d7c"/>
  <text x="25" y="252" class="label">Makefile</text>
  <text x="470" y="252" text-anchor="end" class="value">1.1%</text>
  <rect x="25" y="260" width="445" height="5" rx="2.5" fill="#30363d"/>
  <rect x="25" y="260" width="4.8" height="5" rx="2.5" fill="#427819"/>
  <text x="25" y="292" class="muted">Public, non-fork projects • Profile repository excluded</text>
  <text x="25" y="310" class="muted">Not a proficiency ranking</text>
  <text x="25" y="326" class="muted">Last successful refresh 2026-07-23 02:04 UTC</text>
</svg>
